<?xml version="1.0" encoding="utf-8"?>
<!-- Generator: Adobe Illustrator 23.0.3, SVG Export Plug-In . SVG Version: 6.00 Build 0)  -->
<svg version="1.1" id="레이어_1" xmlns="http://www.w3.org/2000/svg" xmlns:xlink="http://www.w3.org/1999/xlink" x="0px"
	 y="0px" viewBox="0 0 255 68" style="enable-background:new 0 0 255 68;" xml:space="preserve">
<style type="text/css">
	.st0{fill:#00AFEF;}
	.st1{fill:#6F6259;}
</style>
<g>
	<g>
		<g>
			<g>
				<path class="st0" d="M25.22,36.71c-2.11-2.11-5.53-2.11-7.64,0c-2.11,2.11-2.11,5.53,0,7.64l0,0l3.82,3.82
					c0.79,0.79,0.79,2.07,0,2.86c-0.79,0.79-2.07,0.79-2.86,0l-8.44-8.44l-2.39,2.39l8.44,8.44l0,0c2.11,2.11,5.53,2.11,7.64,0
					c2.11-2.11,2.11-5.53,0-7.64l-3.82-3.82c-0.79-0.79-0.79-2.07,0-2.86c0.79-0.79,2.07-0.79,2.86,0l5.25,5.25
					c0,0,2.27,2.47,4.76-0.02L25.22,36.71z"/>
			</g>
			<path class="st0" d="M38.12,39.06L27.57,28.51l-2.39,2.39l8.23,8.23C33.41,39.13,35.71,41.47,38.12,39.06z"/>
		</g>
		<g>
			<path class="st0" d="M23.94,14.58c-2.11-2.11-5.53-2.11-7.64,0c-2.11,2.11-2.11,5.53,0,7.64l0,0l3.82,3.82
				c0.79,0.79,0.79,2.07,0,2.86c-0.79,0.79-2.07,0.79-2.86,0l-7.16-7.16l-2.39,2.39l7.16,7.16l0,0c2.11,2.11,5.53,2.11,7.64,0
				c2.11-2.11,2.11-5.53,0-7.64l-3.82-3.82c-0.79-0.79-0.79-2.07,0-2.86c0.79-0.79,2.07-0.79,2.86,0l6.53,6.53
				c0,0,2.26,2.25,4.64-0.13L23.94,14.58z"/>
			<path class="st0" d="M43.27,33.91L32.72,23.36l-2.39,2.39l8.14,8.14C38.48,33.89,40.74,36.44,43.27,33.91z"/>
		</g>
	</g>
	<g>
		<g>
			<path class="st1" d="M186.89,32.12l-2.98-0.69c-1.31-0.28-1.84-0.52-1.84-1.54c0-1.24,0.8-1.32,2.87-1.32
				c1.15,0,2.44,0.02,3.55,0.05c0.75,0,0.82-0.66,0.82-0.66l0.07-0.82c-1.51-0.32-3.1-0.38-4.51-0.38c-3.42,0-4.96,0.45-4.96,3.1
				c0,1.73,0.8,2.8,2.98,3.35l3.08,0.74c1.26,0.27,1.79,0.47,1.79,1.53c0,1.19-0.67,1.41-2.88,1.41c-1.06,0-1.9-0.01-3.93-0.05
				c-0.75,0-0.76,0.76-0.76,0.76l-0.07,0.77c2.08,0.34,3.74,0.37,4.73,0.37c3.59,0,5.09-0.6,5.09-3.23
				C189.94,33.8,189.2,32.71,186.89,32.12z"/>
			<path class="st1" d="M196.61,30.08c-3.65,0-5.03,1.19-5.03,4.34s1.37,4.32,5.03,4.32c3.67,0,5.03-1.17,5.03-4.32
				S200.28,30.08,196.61,30.08z M196.61,37.11c-2.2,0-2.88-0.59-2.88-2.7c0-2.13,0.69-2.71,2.88-2.71c2.2,0,2.9,0.59,2.9,2.71
				C199.5,36.53,198.8,37.11,196.61,37.11z"/>
			<path class="st1" d="M211.05,36.96c-0.9,0.07-1.82,0.09-2.3,0.09c-2.43,0-3.25-0.59-3.25-2.65c0-2.05,0.82-2.62,3.25-2.62
				c0.56,0,1.35,0,2.11,0.01c0.76,0,0.89-0.61,0.89-0.61l0.14-0.65c-1.06-0.35-2.53-0.47-3.5-0.47c-3.69,0-5.06,1.16-5.06,4.32
				c0,3.18,1.36,4.32,5.06,4.32c1.26,0,2.63-0.15,3.69-0.5l-0.1-0.67C211.97,37.55,211.81,36.85,211.05,36.96z"/>
			<path class="st1" d="M215.57,26.74h-0.96c-0.42,0-0.62,0.22-0.62,0.59v0.92c0,0.39,0.2,0.59,0.62,0.59h0.96
				c0.42,0,0.62-0.2,0.62-0.59v-0.92C216.19,26.96,215.99,26.74,215.57,26.74z"/>
			<rect x="214.06" y="30.31" class="st1" width="2.06" height="8.21"/>
			<path class="st1" d="M227.54,32.93c-0.02-1.86-1.36-2.85-4.63-2.85c-3.49,0-4.94,1.07-4.94,4.32c0,3.12,1.43,4.32,5.13,4.32
				c1.27,0,3.17-0.13,4.17-0.55l-0.1-0.65c0,0-0.04-0.58-0.95-0.58c-0.96,0.08-2.01,0.12-2.85,0.12c-1.99,0-2.93-0.3-3.18-1.79h4.71
				C226.75,35.27,227.56,34.4,227.54,32.93z M220.13,33.85c0.1-1.73,0.82-2.16,2.87-2.16c1.79,0,2.43,0.34,2.45,1.21
				c0,0.44-0.17,0.95-1.11,0.95H220.13z"/>
			<path class="st1" d="M245.07,30.31l-2.58,5.65L242,37.05h-0.3c-0.1-0.37-0.28-0.72-0.44-1.09l-1.92-4.17c0,0-0.44-1.47-2.9-1.47
				h-3.04c-0.28,1.3-1.43,2.27-2.81,2.27v3.73c0,1.53,0.96,2.4,2.76,2.4c0.57,0,1.79-0.1,2.48-0.28l-0.11-0.79
				c0,0-0.1-0.72-1.06-0.72h-0.62c-0.99,0-1.37-0.23-1.37-0.95v-3.85c0.03-0.19,0.19-0.33,0.38-0.33h3.59c0.6,0,0.74,0.43,0.74,0.43
				l2.82,5.8c0.13,0.3,0.37,0.5,0.72,0.5h0.39l-0.08,0.18c-0.43,0.87-1.17,1.42-2.51,1.79c-0.63,0.23-0.48,0.79-0.48,0.79l0.09,0.64
				c2.78,0.13,4.17-1.63,4.89-3.15l4.09-8.46H245.07z"/>
			<path class="st1" d="M232.66,29.85v-2.08h-2.08v2.14v0.02v0.02c-0.01,0.2-0.18,0.37-0.39,0.37h-1.96v1.47h2.34
				C231.69,31.79,232.59,30.93,232.66,29.85z"/>
		</g>
		<g>
			<g>
				<path class="st1" d="M59.93,32.12l-2.98-0.69c-1.31-0.29-1.84-0.52-1.84-1.54c0-1.24,0.8-1.32,2.87-1.32
					c1.15,0,2.44,0.02,3.55,0.05c0.75,0,0.82-0.66,0.82-0.66l0.07-0.81c-1.51-0.32-3.1-0.38-4.51-0.38c-3.42,0-4.96,0.45-4.96,3.1
					c0,1.73,0.81,2.8,2.98,3.35l3.08,0.74c1.26,0.27,1.79,0.47,1.79,1.53c0,1.19-0.67,1.41-2.88,1.41c-1.06,0-1.9-0.01-3.93-0.05
					c-0.75,0-0.76,0.76-0.76,0.76l-0.07,0.77c2.08,0.33,3.74,0.37,4.73,0.37c3.59,0,5.09-0.61,5.09-3.24
					C62.98,33.8,62.24,32.71,59.93,32.12z"/>
				<path class="st1" d="M69.47,30.08c-3.65,0-5.03,1.19-5.03,4.34s1.38,4.32,5.03,4.32c3.67,0,5.03-1.17,5.03-4.32
					S73.14,30.08,69.47,30.08z M69.47,37.12c-2.19,0-2.88-0.59-2.88-2.7c0-2.13,0.69-2.71,2.88-2.71c2.2,0,2.9,0.59,2.9,2.71
					C72.37,36.53,71.66,37.12,69.47,37.12z"/>
				<g>
					<path class="st1" d="M87.71,31.79h2.86v-1.48h-2.51c-0.28,1.3-1.43,2.27-2.82,2.27v3.73c0,1.53,0.96,2.4,2.77,2.4
						c0.57,0,1.79-0.1,2.48-0.28l-0.11-0.79c0,0-0.1-0.72-1.06-0.72H88.7c-0.99,0-1.37-0.23-1.37-0.95v-3.85
						C87.36,31.93,87.52,31.79,87.71,31.79z"/>
					<path class="st1" d="M85.25,27.77v2.14v0.02v0.02c-0.01,0.2-0.18,0.37-0.38,0.37h-4.44c-0.28,1.3-1.43,2.27-2.81,2.27
						c0,0,0,0,0,0v5.94h0h2.07h0v-6.43c0.04-0.18,0.19-0.31,0.38-0.31h5.18c1.1,0,2.01-0.86,2.08-1.94v-2.08H85.25z"/>
					<path class="st1" d="M80.77,26.47c-1.65,0-2.54,0.48-2.92,1.3c-0.16,0.34-0.23,0.74-0.23,1.18l0,0.99
						c-0.01,0.2-0.18,0.37-0.39,0.37h-1.77v1.48h2.16c1.1,0,2-0.86,2.08-1.94l0-0.62c0-0.84,0.47-1.16,1.79-1.16h1.39
						c0.8,0,0.85-0.73,0.85-0.73l0.09-0.71C82.95,26.51,81.46,26.47,80.77,26.47z"/>
				</g>
			</g>
			<g>
				<g>
					<path class="st1" d="M99.57,28.67h5.06c0.88,0,0.92-0.81,0.92-0.81l0.05-0.79c-2.01-0.13-4.34-0.13-6.5-0.13
						c-1.78,0-2.93,0.84-2.95,2.19v7.24c0.02,1.36,1.16,2.19,2.95,2.19c2.16,0,4.49,0,6.5-0.13l-0.05-0.84c0,0,0-0.75-1.03-0.75
						h-4.95c-0.87,0-1.26-0.25-1.26-0.97v-2.58h6.37v-1.61h-6.37v-2.03C98.31,28.92,98.7,28.67,99.57,28.67z"/>
					<path class="st1" d="M132.27,26.74h-0.96c-0.42,0-0.62,0.22-0.62,0.59v0.92c0,0.39,0.2,0.59,0.62,0.59h0.96
						c0.42,0,0.62-0.2,0.62-0.59v-0.92C132.89,26.96,132.69,26.74,132.27,26.74z"/>
					<rect x="130.76" y="30.31" class="st1" width="2.06" height="8.21"/>
					<path class="st1" d="M166.64,32.93c-0.02-1.86-1.36-2.85-4.63-2.85c-3.49,0-4.94,1.07-4.94,4.32c0,3.12,1.42,4.32,5.13,4.32
						c1.27,0,3.17-0.13,4.17-0.55l-0.1-0.65c0,0-0.04-0.58-0.95-0.58c-0.96,0.08-2.01,0.12-2.85,0.12c-2,0-2.93-0.3-3.19-1.79h4.71
						C165.85,35.27,166.65,34.4,166.64,32.93z M159.23,33.85c0.1-1.73,0.82-2.16,2.87-2.16c1.79,0,2.43,0.34,2.45,1.21
						c0,0.44-0.17,0.95-1.11,0.95H159.23z"/>
					<path class="st1" d="M155.79,32.93c-0.02-1.86-1.36-2.85-4.63-2.85c-3.49,0-4.95,1.07-4.95,4.32c0,3.12,1.42,4.32,5.13,4.32
						c1.27,0,3.17-0.13,4.17-0.55l-0.1-0.65c0,0-0.03-0.58-0.96-0.58c-0.96,0.08-2.01,0.12-2.85,0.12c-1.99,0-2.93-0.3-3.18-1.79
						h4.71C155,35.27,155.81,34.4,155.79,32.93z M148.38,33.85c0.1-1.73,0.82-2.16,2.87-2.16c1.79,0,2.43,0.34,2.45,1.21
						c0,0.44-0.17,0.95-1.11,0.95H148.38z"/>
					<path class="st1" d="M113.91,30.08c-3.52,0-4.51,0.93-4.51,0.93s0.02-0.95-0.87-0.95h-1.2v8.47h2.08v-5.71
						c0-0.25,0.15-0.46,0.36-0.55l0.18-0.05c0.62-0.17,1.76-0.41,3.34-0.41c1.04,0,1.44,0.25,1.44,1.17v5.55h2.08v-6.17
						C116.8,30.88,115.77,30.08,113.91,30.08z"/>
					<path class="st1" d="M141.67,30.08c-3.53,0-4.51,0.93-4.51,0.93s0.02-0.95-0.87-0.95h-1.2v8.47h2.08v-5.71
						c0-0.25,0.15-0.46,0.36-0.55l0.18-0.05c0.62-0.17,1.76-0.41,3.34-0.41c1.04,0,1.44,0.25,1.44,1.17v5.55h2.08v-6.17
						C144.55,30.88,143.53,30.08,141.67,30.08z"/>
					<path class="st1" d="M174.93,30.08c-3.53,0-4.51,0.93-4.51,0.93s0.02-0.95-0.87-0.95h-1.2v8.47h2.08v-5.71
						c0-0.25,0.15-0.46,0.36-0.55l0.18-0.05c0.55-0.15,1.51-0.4,2.83-0.4C175.07,31.81,174.93,30.08,174.93,30.08z"/>
				</g>
				<g>
					<path class="st1" d="M125.98,30.31c-0.65-0.17-1.53-0.23-2.6-0.23c-3.45,0-4.61,0.74-4.61,2.67c0,1.07,0.39,1.79,1.39,2.19
						c-0.95,0.47-1.22,1.83-0.3,2.51c-1.11,0.49-1.54,0.94-1.54,1.84c0,1.88,1.26,2.51,5.18,2.51c3.82,0,5.13-0.6,5.13-2.63
						c0-1.43-0.72-2.18-2.75-2.4l-3.94-0.42c-1.07-0.1-1.16-0.74-0.74-1.14c0.6,0.1,1.31,0.15,2.16,0.15c3.45,0,4.61-0.79,4.61-2.65
						c0-0.39-0.05-0.72-0.15-1.01h0.89v-1.4H125.98z M121.17,37.87l3.64,0.33c1.46,0.13,1.81,0.19,1.81,0.89
						c0,0.92-0.67,1.09-3.15,1.09c-2.48,0-3.15-0.13-3.15-1.11C120.31,38.56,120.6,38.25,121.17,37.87z M123.36,33.95
						c-1.99,0-2.7-0.32-2.7-1.22c0-0.92,0.69-1.21,2.7-1.21c2.03,0,2.68,0.28,2.68,1.21C126.04,33.63,125.37,33.95,123.36,33.95z"/>
				</g>
			</g>
		</g>
	</g>
</g>
</svg>
